<svg xmlns="http://www.w3.org/2000/svg" width="120" height="28" viewBox="0 0 120 28" fill="none"><path d="M71.2952 8.01758C69.9457 8.01758 68.6561 8.37984 67.4564 9.01381L67.6364 8.01758H63.9775L62.7479 15.3836C62.7479 15.4138 62.7479 15.4138 62.7479 15.444C62.7479 15.4742 62.7479 15.4742 62.7479 15.5044L60.7385 27.3082H64.3974L65.2971 21.844C66.2568 22.478 67.4564 22.8402 68.806 22.8402C72.8548 22.8402 76.6936 19.5195 77.3834 15.4138C78.0731 11.3081 75.344 8.01758 71.2952 8.01758ZM73.7245 15.4138C73.3946 17.4667 71.4752 19.127 69.4358 19.127C67.4265 19.127 66.0469 17.4667 66.3768 15.444V15.3836C66.7367 13.361 68.6561 11.7006 70.6654 11.7006C72.7048 11.7006 74.0844 13.361 73.7245 15.4138Z" fill="#333939"></path><path d="M87.5206 8.01758C86.171 8.01758 84.8814 8.37984 83.6818 9.01381L83.8617 8.01758H80.2029L78.9732 15.4138C78.9732 15.4138 78.9732 15.4138 78.9732 15.444C78.9732 15.444 78.9732 15.444 78.9732 15.4742L76.9639 27.3082H80.6227L81.5224 21.844C82.5121 22.478 83.6818 22.8402 85.0314 22.8402C89.0801 22.8402 92.9189 19.5195 93.6087 15.4138C94.3285 11.3081 91.5693 8.01758 87.5206 8.01758ZM89.9498 15.4138C89.6199 17.4667 87.7005 19.127 85.6612 19.127C83.6518 19.127 82.2722 17.4667 82.6021 15.444V15.4138C82.962 13.361 84.8514 11.7308 86.8908 11.7308C88.9301 11.7006 90.3097 13.361 89.9498 15.4138Z" fill="#333939"></path><path d="M103.746 8.01758C99.6972 8.01758 95.8584 11.3383 95.1686 15.444C94.4788 19.5497 97.208 22.8704 101.287 22.8704C103.326 22.8704 105.275 22.0553 106.835 20.6968C107.375 20.244 107.855 19.7308 108.245 19.1572L105.245 17.4666C105.096 17.678 104.916 17.8591 104.706 18.01C103.926 18.7044 102.906 19.127 101.887 19.127C100.357 19.127 99.1874 18.161 98.8575 16.8025H105.665H109.474C109.624 16.3497 109.744 15.8968 109.834 15.4138C110.524 11.3081 107.795 8.01758 103.746 8.01758ZM103.116 11.7006C104.646 11.7006 105.815 12.6666 106.145 14.0251H99.3373C100.117 12.6666 101.587 11.7006 103.116 11.7006Z" fill="#333939"></path><path d="M116.131 8.98345L116.311 7.98722H112.652L110.193 22.8099H113.852L115.082 15.3835C115.411 13.3306 117.331 11.6702 119.37 11.6702L120 7.95703C118.62 8.01741 117.331 8.37967 116.131 8.98345Z" fill="#333939"></path><path d="M51.7118 8.01762C50.2422 8.01762 48.9826 8.25913 47.9329 8.68177L48.9826 2.46289H45.2338L41.9348 22.8101V22.8403H45.5937L46.9732 14.5082C47.2432 12.9686 48.6827 11.7308 50.1822 11.7308C51.7118 11.7308 52.7314 12.9686 52.4615 14.5082L51.082 22.8403H54.7408L56.3003 13.5723C56.8102 10.4931 54.7708 8.01762 51.7118 8.01762Z" fill="#333939"></path><path d="M58.7592 8.01758L56.27 22.8402H59.9589L62.4181 8.01758H58.7592Z" fill="#333939"></path><path d="M61.1585 6.20629C62.1854 6.20629 63.0179 5.3683 63.0179 4.33459C63.0179 3.30088 62.1854 2.46289 61.1585 2.46289C60.1316 2.46289 59.2991 3.30088 59.2991 4.33459C59.2991 5.3683 60.1316 6.20629 61.1585 6.20629Z" fill="#333939"></path><path d="M36.2664 11.2176L36.1465 11.1874C34.257 10.4025 33.0274 9.79875 33.0274 8.28931C33.0274 6.74969 34.467 6.05535 35.9065 6.05535C37.3761 6.05535 38.7556 6.59875 39.5654 7.62516L42.0846 5.08931C40.5551 3.30817 38.5157 2.46289 36.1764 2.46289C36.1465 2.46289 36.1465 2.46289 36.1165 2.46289C32.7275 2.46289 29.3386 4.5761 29.3386 8.62139C29.3386 12.3044 32.1877 13.512 34.287 14.3874L34.467 14.478C36.1465 15.2025 37.586 15.8063 37.586 17.1346C37.586 18.5837 36.0265 19.2478 34.5869 19.2478C32.9675 19.2176 31.4379 18.4931 30.4182 17.2554L30.2983 17.1044L27.5991 19.8214L27.7191 19.9422C29.3986 21.7837 31.8278 22.8403 34.377 22.8403C36.2364 22.8403 37.9459 22.2969 39.2055 21.2705C40.6151 20.1535 41.3348 18.5837 41.3348 16.7422C41.2749 13.2403 38.5157 12.1233 36.2664 11.2176Z" fill="#333939"></path><path d="M1.51147 6.93066H23.7116L24.0726 4.6665H3.73751L1.51147 6.93066Z" fill="#F04A41"></path><path d="M24.0729 0.138184H8.58091C8.37034 0.138184 8.15977 0.22875 8.00936 0.379693L5.9939 2.40234H24.464L24.7046 0.892902C24.7648 0.500448 24.464 0.138184 24.0729 0.138184Z" fill="#F04A41"></path><path d="M1.51147 9.16455L3.73751 11.4287H18.7181L16.462 9.16455H1.51147Z" fill="#F04A41"></path><path d="M23.2005 15.957L20.9444 13.6929H5.9939L8.25001 15.957H23.2005Z" fill="#F04A41"></path><path d="M0.639893 20.4853H20.975L23.2311 18.2212H1.00087L0.639893 20.4853Z" fill="#F04A41"></path><path d="M0.0076658 24.2288C-0.0524973 24.6212 0.248318 25.0137 0.66946 25.0137H16.1314C16.3419 25.0137 16.5525 24.9231 16.7029 24.7722L18.7184 22.7495H0.248318L0.0076658 24.2288Z" fill="#F04A41"></path></svg>