<?xml version="1.0" standalone="no"?>
<!DOCTYPE svg PUBLIC "-//W3C//DTD SVG 20010904//EN"
 "http://www.w3.org/TR/2001/REC-SVG-20010904/DTD/svg10.dtd">
<svg version="1.0" xmlns="http://www.w3.org/2000/svg"
 width="1000.000000pt" height="1000.000000pt" viewBox="0 0 1000.000000 1000.000000"
 preserveAspectRatio="xMidYMid meet">
<metadata>
Created by potrace 1.14, written by Peter Selinger 2001-2017
</metadata>
<g transform="translate(0.000000,1000.000000) scale(0.100000,-0.100000)"
fill="#000000" stroke="none">
<path d="M2290 9993 c-32 -3 -191 -26 -266 -38 -257 -43 -623 -190 -874 -353
-211 -136 -442 -342 -587 -522 -209 -260 -362 -548 -457 -861 -45 -151 -72
-287 -96 -489 -4 -42 -7 -1279 -6 -2775 2 -2955 -3 -2721 56 -2995 82 -385
290 -800 549 -1095 78 -89 262 -264 344 -329 240 -186 541 -343 830 -431 48
-14 100 -29 114 -31 15 -3 29 -7 33 -9 10 -6 221 -41 335 -55 95 -11 5381 -11
5470 1 39 5 84 11 100 13 17 3 53 8 80 11 88 12 257 55 376 95 499 168 916
475 1232 903 258 351 422 785 466 1237 10 107 9 5457 -1 5505 -4 17 -12 62
-17 100 -50 333 -185 696 -360 965 -46 72 -175 244 -220 295 -75 84 -249 253
-321 310 -94 75 -317 225 -335 225 -7 0 -15 4 -17 9 -4 12 -217 113 -323 154
-157 60 -307 104 -420 122 -16 3 -73 13 -125 22 -87 15 -319 17 -2810 18
-1493 1 -2731 0 -2750 -2z"/>
</g>
</svg>
