<?xml version="1.0" standalone="no"?>
<!DOCTYPE svg PUBLIC "-//W3C//DTD SVG 20010904//EN"
 "http://www.w3.org/TR/2001/REC-SVG-20010904/DTD/svg10.dtd">
<svg version="1.0" xmlns="http://www.w3.org/2000/svg"
 width="342.000000pt" height="342.000000pt" viewBox="0 0 342.000000 342.000000"
 preserveAspectRatio="xMidYMid meet">
<metadata>
Created by potrace 1.14, written by Peter Selinger 2001-2017
</metadata>
<g transform="translate(0.000000,342.000000) scale(0.100000,-0.100000)"
fill="#000000" stroke="none">
<path d="M1660 3352 c-15 -12 -49 -22 -85 -26 -134 -15 -262 -46 -414 -101
-176 -63 -362 -180 -521 -330 -42 -38 -92 -83 -113 -100 -20 -17 -42 -46 -48
-65 -6 -19 -19 -44 -29 -55 -33 -39 -128 -191 -164 -263 -80 -159 -143 -388
-161 -586 -4 -47 -13 -77 -28 -98 -29 -40 -29 -99 1 -131 14 -15 25 -41 27
-68 8 -74 26 -182 37 -224 28 -105 61 -206 85 -260 36 -79 137 -251 184 -314
21 -28 43 -68 49 -89 10 -39 73 -112 95 -112 6 0 43 -27 81 -61 99 -87 204
-158 324 -222 197 -105 349 -151 598 -181 24 -3 58 -17 76 -31 42 -32 89 -32
135 0 23 15 57 26 91 30 342 37 664 179 897 395 28 26 68 57 90 69 43 25 77
71 88 120 4 18 19 47 35 64 36 42 127 182 136 210 4 12 14 33 24 47 22 33 85
198 111 291 25 92 37 150 44 231 4 38 16 82 32 111 28 55 27 90 -7 137 -11 16
-20 44 -20 64 0 52 -26 208 -51 301 -53 203 -175 451 -287 581 -5 5 -14 26
-21 45 -13 39 -26 54 -143 161 -122 112 -269 218 -378 273 -146 74 -393 144
-564 161 -33 3 -69 13 -78 21 -29 25 -99 28 -128 5z"/>
</g>
</svg>
